<svg width="79" height="24" viewBox="0 0 79 24" fill="none" xmlns="http://www.w3.org/2000/svg">
<path d="M8.16336 19.28C5.91003 19.28 4.19003 18.6533 3.00336 17.4C1.83003 16.1467 1.24336 14.3667 1.24336 12.06C1.24336 10.9133 1.42336 9.89333 1.78336 9C2.14336 8.09333 2.63669 7.33333 3.26336 6.72C3.89003 6.09333 4.63669 5.62 5.50336 5.3C6.37003 4.98 7.31003 4.82 8.32336 4.82C8.91003 4.82 9.44336 4.86667 9.92336 4.96C10.4034 5.04 10.8234 5.14 11.1834 5.26C11.5434 5.36667 11.8434 5.48 12.0834 5.6C12.3234 5.72 12.4967 5.81333 12.6034 5.88L11.7034 8.4C11.2767 8.17333 10.7767 7.98 10.2034 7.82C9.64336 7.66 9.00336 7.58 8.28336 7.58C7.80336 7.58 7.33003 7.66 6.86336 7.82C6.41003 7.98 6.00336 8.24 5.64336 8.6C5.29669 8.94667 5.01669 9.4 4.80336 9.96C4.59003 10.52 4.48336 11.2 4.48336 12C4.48336 12.64 4.55003 13.24 4.68336 13.8C4.83003 14.3467 5.05669 14.82 5.36336 15.22C5.68336 15.62 6.09669 15.94 6.60336 16.18C7.11003 16.4067 7.72336 16.52 8.44336 16.52C8.89669 16.52 9.30336 16.4933 9.66336 16.44C10.0234 16.3867 10.3434 16.3267 10.6234 16.26C10.9034 16.18 11.15 16.0933 11.3634 16C11.5767 15.9067 11.77 15.82 11.9434 15.74L12.8034 18.24C12.3634 18.5067 11.7434 18.7467 10.9434 18.96C10.1434 19.1733 9.21669 19.28 8.16336 19.28ZM15.0121 19V3.96L17.9921 3.48V8.52C18.1921 8.45333 18.4454 8.39333 18.7521 8.34C19.0721 8.27333 19.3788 8.24 19.6721 8.24C20.5254 8.24 21.2321 8.36 21.7921 8.6C22.3654 8.82667 22.8188 9.15333 23.1521 9.58C23.4988 10.0067 23.7388 10.5133 23.8721 11.1C24.0188 11.6867 24.0921 12.34 24.0921 13.06V19H21.1121V13.42C21.1121 12.46 20.9854 11.78 20.7321 11.38C20.4921 10.98 20.0388 10.78 19.3721 10.78C19.1054 10.78 18.8521 10.8067 18.6121 10.86C18.3854 10.9 18.1788 10.9467 17.9921 11V19H15.0121ZM26.6895 13.82C26.6895 12.8867 26.8295 12.0733 27.1095 11.38C27.4028 10.6733 27.7828 10.0867 28.2495 9.62C28.7161 9.15333 29.2495 8.8 29.8495 8.56C30.4628 8.32 31.0895 8.2 31.7295 8.2C33.2228 8.2 34.4028 8.66 35.2695 9.58C36.1361 10.4867 36.5695 11.8267 36.5695 13.6C36.5695 13.7733 36.5628 13.9667 36.5495 14.18C36.5361 14.38 36.5228 14.56 36.5095 14.72H29.7495C29.8161 15.3333 30.1028 15.82 30.6095 16.18C31.1161 16.54 31.7961 16.72 32.6495 16.72C33.1961 16.72 33.7295 16.6733 34.2495 16.58C34.7828 16.4733 35.2161 16.3467 35.5495 16.2L35.9495 18.62C35.7895 18.7 35.5761 18.78 35.3095 18.86C35.0428 18.94 34.7428 19.0067 34.4095 19.06C34.0895 19.1267 33.7428 19.18 33.3695 19.22C32.9961 19.26 32.6228 19.28 32.2495 19.28C31.3028 19.28 30.4761 19.14 29.7695 18.86C29.0761 18.58 28.4961 18.2 28.0295 17.72C27.5761 17.2267 27.2361 16.6467 27.0095 15.98C26.7961 15.3133 26.6895 14.5933 26.6895 13.82ZM33.6895 12.68C33.6761 12.4267 33.6295 12.18 33.5495 11.94C33.4828 11.7 33.3695 11.4867 33.2095 11.3C33.0628 11.1133 32.8695 10.96 32.6295 10.84C32.4028 10.72 32.1161 10.66 31.7695 10.66C31.4361 10.66 31.1495 10.72 30.9095 10.84C30.6695 10.9467 30.4695 11.0933 30.3095 11.28C30.1495 11.4667 30.0228 11.6867 29.9295 11.94C29.8495 12.18 29.7895 12.4267 29.7495 12.68H33.6895ZM38.7691 13.74C38.7691 12.98 38.8891 12.2667 39.1291 11.6C39.3825 10.92 39.7425 10.3333 40.2091 9.84C40.6758 9.33333 41.2425 8.93333 41.9091 8.64C42.5758 8.34667 43.3358 8.2 44.1891 8.2C44.7491 8.2 45.2625 8.25333 45.7291 8.36C46.1958 8.45333 46.6491 8.59333 47.0891 8.78L46.4691 11.16C46.1891 11.0533 45.8825 10.96 45.5491 10.88C45.2158 10.8 44.8425 10.76 44.4291 10.76C43.5491 10.76 42.8891 11.0333 42.4491 11.58C42.0225 12.1267 41.8091 12.8467 41.8091 13.74C41.8091 14.6867 42.0091 15.42 42.4091 15.94C42.8225 16.46 43.5358 16.72 44.5491 16.72C44.9091 16.72 45.2958 16.6867 45.7091 16.62C46.1225 16.5533 46.5025 16.4467 46.8491 16.3L47.2691 18.74C46.9225 18.8867 46.4891 19.0133 45.9691 19.12C45.4491 19.2267 44.8758 19.28 44.2491 19.28C43.2891 19.28 42.4625 19.14 41.7691 18.86C41.0758 18.5667 40.5025 18.1733 40.0491 17.68C39.6091 17.1867 39.2825 16.6067 39.0691 15.94C38.8691 15.26 38.7691 14.5267 38.7691 13.74ZM52.6491 12.28C52.9425 11.96 53.2425 11.6267 53.5491 11.28C53.8691 10.9333 54.1758 10.5933 54.4691 10.26C54.7625 9.91333 55.0358 9.58667 55.2891 9.28C55.5558 8.97333 55.7825 8.70667 55.9691 8.48H59.5091C58.8025 9.29333 58.1091 10.0733 57.4291 10.82C56.7625 11.5533 56.0291 12.3133 55.2291 13.1C55.6291 13.46 56.0425 13.8933 56.4691 14.4C56.8958 14.8933 57.3091 15.4067 57.7091 15.94C58.1091 16.4733 58.4758 17.0067 58.8091 17.54C59.1425 18.0733 59.4225 18.56 59.6491 19H56.2291C56.0158 18.6533 55.7691 18.2733 55.4891 17.86C55.2225 17.4333 54.9358 17.0133 54.6291 16.6C54.3225 16.1733 53.9958 15.7667 53.6491 15.38C53.3158 14.9933 52.9825 14.6667 52.6491 14.4V19H49.6691V3.96L52.6491 3.48V12.28ZM61.8512 5.14H64.9712V19H61.8512V5.14ZM68.3793 8.84C68.886 8.69333 69.5393 8.56 70.3393 8.44C71.1393 8.30667 71.9793 8.24 72.8593 8.24C73.7526 8.24 74.4926 8.36 75.0793 8.6C75.6793 8.82667 76.1526 9.15333 76.4993 9.58C76.846 10.0067 77.0926 10.5133 77.2393 11.1C77.386 11.6867 77.4593 12.34 77.4593 13.06V19H74.4793V13.42C74.4793 12.46 74.3526 11.78 74.0993 11.38C73.846 10.98 73.3726 10.78 72.6793 10.78C72.466 10.78 72.2393 10.7933 71.9993 10.82C71.7593 10.8333 71.546 10.8533 71.3593 10.88V19H68.3793V8.84Z" fill="white"/>
</svg>
